{"title":"Top Gear At TheMovies 2011 avi","uid":7012734,"size":1926526474,"categoryP":"video","categoryS":"movies","magnet":"?xt=urn:btih:20b749fbf6513c691d0ec94447a42b888d14c85d&amp;dn=Top+Gear+At+TheMovies+2011+avi&amp;tr=udp%3A%2F%2Ftracker.openbittorrent.com%3A80&amp;tr=udp%3A%2F%2Fopen.demonii.com%3A1337&amp;tr=udp%3A%2F%2Ftracker.coppersurfer.tk%3A6969&amp;tr=udp%3A%2F%2Fexodus.desync.com%3A6969","seeders":0,"leechers":0,"uploader":"Spetses","files":-1,"time":1328488475,"description":"Gasp as we find the perfect drift car for a gritty, Bourne Identity-style chase!\nCheer as we stage a race for all those unsung heroes of the movie industry!\nWhoop as we find the car that makes the perfect dramatic exhaust note to dub onto\nan action sequence! Make some other sort of noise we haven't thought of yet as we\nattempt to emulate the classic Man With The Golden Gun barrel roll, having frankly\nmade a total hash of it when we first tried it on telly! All this plus a vast fleet\nof sexy supercars and a man with a jet pack racing a skoda \n\n\nComplete name: Top.Gear.At.The.Movies.2011\nFormat: AVI\nFormat/Info: Audio Video Interleave\nFile size: 1.79 GiB\nDuration: 1h 13mn\nOverall bit rate: 3 502 Kbps\nLanguage: English\nSubs: N/A\nSource: 720p-CHD Many THANKS\nEncoder: akosipalos iMDB: http://www.imdb.com/title/tt2202611/ Video\nID: 0\nFormat: MPEG-4 Visual\nFormat profile: Advanced Simple@L5\nFormat settings, BVOP: 2\nFormat settings, QPel: No\nFormat settings, GMC: No warppoints\nFormat settings, Matrix: Default (H.263)\nCodec ID: XVID\nCodec ID/Hint: XviD\nDuration: 1h 13mn\nBit rate: 3 046 Kbps\nWidth: 720 pixels\nHeight: 400 pixels\nDisplay aspect ratio: 16:9\nFrame rate: 25.000 fps\nColor space: YUV\nChroma subsampling: 4:2:0\nBit depth: 8 bits\nScan type: Progressive\nCompression mode: Lossy\nBits/(Pixel*Frame): 0.423\nStream size: 1.56 GiB (87%)\nWriting library: XviD 1.2.1 (UTC 2008-12-04) Audio\nID: 1\nFormat: AC-3\nFormat/Info: Audio Coding 3\nMode extension: CM (complete main)\nCodec ID: 2000\nDuration: 1h 13mn\nBit rate mode: Constant\nBit rate: 448 Kbps\nChannel(s): 6 channels\nChannel positions: Front: L C R, Side: L R, LFE\nSampling rate: 48.0 KHz\nBit depth: 16 bits\nCompression mode: Lossy\nStream size: 235 MiB (13%)\nAlignment: Aligned on interleaves\nInterleave, duration: 64 ms (1.60 video frames)\nInterleave, preload duration: 192 ms\n","torrent":{"xt":"urn:btih:20b749fbf6513c691d0ec94447a42b888d14c85d","amp;dn":"Top+Gear+At+TheMovies+2011+avi","amp;tr":["udp%3A%2F%2Ftracker.openbittorrent.com%3A80","udp%3A%2F%2Fopen.demonii.com%3A1337","udp%3A%2F%2Ftracker.coppersurfer.tk%3A6969","udp%3A%2F%2Fexodus.desync.com%3A6969"],"infoHash":"20b749fbf6513c691d0ec94447a42b888d14c85d","infoHashBuffer":{"type":"Buffer","data":[32,183,73,251,246,81,60,105,29,14,201,68,71,164,43,136,141,20,200,93]},"announce":[],"urlList":[]}}